<?xml version="1.0" standalone="no"?><!DOCTYPE svg PUBLIC "-//W3C//DTD SVG 1.1//EN" "http://www.w3.org/Graphics/SVG/1.1/DTD/svg11.dtd"><svg t="1671593453563" class="icon" viewBox="0 0 1024 1024" version="1.1" xmlns="http://www.w3.org/2000/svg" p-id="3073" width="128" height="128" xmlns:xlink="http://www.w3.org/1999/xlink"><path d="M998.751966 512c0 98.711186-29.408797 193.771215-85.021395 274.918373-4.644787 6.753821-12.33084 10.810207-20.545942 10.810207-2.515287 0-4.988618-0.385786-7.342222-1.115404-2.352581-0.730641-4.624321-1.825578-6.693446-3.244904-11.2973-7.747451-14.19735-23.26282-6.449899-34.580586 49.912783-72.811306 76.320223-158.136623 76.320223-246.787686 0-58.999742-11.56029-116.234281-34.337039-170.103166-22.005176-52.043307-53.523007-98.772584-93.66117-138.909723-40.138162-40.117696-86.866417-71.65497-138.909723-93.66117-53.888328-22.776749-111.103424-34.337039-170.103166-34.337039s-116.234281 11.56029-170.103166 34.337039c-52.043307 22.0062-98.772584 53.524031-138.909723 93.66117-40.117696 40.137139-71.65497 86.866417-93.66117 138.909723C86.560448 395.785162 74.999135 453.000258 74.999135 512c0 58.999742 11.56029 116.234281 34.337039 170.103166 22.005176 52.043307 53.523007 98.771561 93.66117 138.909723 40.137139 40.117696 86.866417 71.65497 138.909723 93.66117 53.888328 22.776749 111.103424 34.337039 170.103166 34.337039 96.297206 0 187.626261-30.706349 264.108167-88.793302 4.360308-3.325745 9.573029-5.070482 15.029298-5.070482 7.848759 0 15.069207 3.589758 19.815301 9.837042 8.29492 10.911514 6.16542 26.548656-4.746094 34.843576-42.00365 31.903617-88.509846 56.606229-138.199549 73.399707-50.135864 16.935718-102.625332 25.53456-156.007123 25.53456-65.712631 0-129.458467-12.879332-189.472306-38.251186-57.96518-24.499997-110.027929-59.607586-154.729014-104.308671-44.701085-44.701085-79.808674-96.763834-104.308671-154.729014-25.39232-60.013839-38.251186-123.758652-38.251186-189.471282s12.879332-129.458467 38.251186-189.472306c24.499997-57.96518 59.607586-110.027929 104.308671-154.729014 44.701085-44.701085 96.743368-79.808674 154.729014-104.308671 60.013839-25.39232 123.759675-38.251186 189.472306-38.251186s129.458467 12.878309 189.472306 38.251186c57.96518 24.499997 110.028952 59.608609 154.729014 104.308671 44.701085 44.701085 79.808674 96.744391 104.308671 154.729014C985.872634 382.521067 998.751966 446.266903 998.751966 512z" p-id="3074" fill="#d81e06"></path><path d="M652.258441 675.308413c-0.446162 6.632047-3.427052 12.675694-8.43716 17.056468-4.54348 3.975545-10.364045 6.16542-16.367783 6.16542-7.179516 0-14.015202-3.083222-18.739806-8.497535l-72.081689-82.384335c-1.602498 12.169157-12.047384 21.579481-24.662703 21.579481-13.710256 0-24.885783-11.155061-24.885783-24.865317l0-53.361325-40.035832-45.735647c-4.360308-5.010107-6.53074-11.418051-6.105045-18.030655 0.446162-6.632047 3.447519-12.69616 8.43716-17.056468 4.54348-3.975545 10.343579-6.16542 16.367783-6.16542 7.179516 0 14.015202 3.103688 18.74083 8.498558l2.596128 2.980891L487.084541 257.950933c0-13.730723 11.175527-24.885783 24.885783-24.885783 13.730723 0 24.885783 11.155061 24.885783 24.885783l0 274.391371 109.318778 124.935454C650.554636 662.267399 652.725068 668.676365 652.258441 675.308413z" p-id="3075" fill="#d81e06"></path></svg>